<?xml version="1.0" encoding="UTF-8"?>
<!DOCTYPE svg PUBLIC "-//W3C//DTD SVG 1.1//EN" "http://www.w3.org/Graphics/SVG/1.1/DTD/svg11.dtd">
<!-- Creator: CorelDRAW -->
<svg xmlns="http://www.w3.org/2000/svg" xml:space="preserve" width="0.501047in" height="0.639846in" version="1.1" style="shape-rendering:geometricPrecision; text-rendering:geometricPrecision; image-rendering:optimizeQuality; fill-rule:evenodd; clip-rule:evenodd"
viewBox="0 0 494.57 631.58"
 xmlns:xlink="http://www.w3.org/1999/xlink"
 xmlns:xodm="http://www.corel.com/coreldraw/odm/2003">
 <defs>
  <style type="text/css">
   <![CDATA[
    .fil0 {fill:black;fill-rule:nonzero}
   ]]>
  </style>
 </defs>
 <g id="Layer_x0020_1">
  <metadata id="CorelCorpID_0Corel-Layer"/>
  <path class="fil0" d="M62.73 631.58l102.82 0 0 -184.05c0,-22.62 18.51,-41.13 41.13,-41.13l85.34 0c22.62,0 41.13,18.51 41.13,41.13l0 184.05 99.74 0c33.93,0 61.69,-27.76 61.69,-61.69l0 -323.89c0,-16.45 -6.17,-31.87 -18.51,-43.19l-185.08 -185.08c-23.65,-23.65 -62.72,-23.65 -87.4,0l-185.08 185.08c-11.31,11.31 -18.51,27.76 -18.51,43.19l0 323.89c1.03,33.93 28.79,61.69 62.72,61.69z"/>
 </g>
</svg>
