<?xml version="1.0" encoding="UTF-8"?>
<!DOCTYPE svg PUBLIC "-//W3C//DTD SVG 1.1//EN" "http://www.w3.org/Graphics/SVG/1.1/DTD/svg11.dtd">
<!-- Creator: CorelDRAW -->
<svg xmlns="http://www.w3.org/2000/svg" xml:space="preserve" width="0.958331in" height="0.958331in" version="1.1" style="shape-rendering:geometricPrecision; text-rendering:geometricPrecision; image-rendering:optimizeQuality; fill-rule:evenodd; clip-rule:evenodd"
viewBox="0 0 951.82 951.82"
 xmlns:xlink="http://www.w3.org/1999/xlink"
 xmlns:xodm="http://www.corel.com/coreldraw/odm/2003">
 <defs>
  <style type="text/css">
   <![CDATA[
    .fil0 {fill:black;fill-rule:nonzero}
   ]]>
  </style>
 </defs>
 <g id="Layer_x0020_1">
  <metadata id="CorelCorpID_0Corel-Layer"/>
  <path class="fil0" d="M232.81 281.44c0,-26.85 21.77,-48.62 48.62,-48.62l97.23 0c26.85,0 48.62,21.77 48.62,48.62l0 97.23c0,26.85 -21.77,48.62 -48.62,48.62l-97.23 0c-26.85,0 -48.62,-21.77 -48.62,-48.62l0 -97.23zm719 548.06c0,67.55 -54.76,122.32 -122.32,122.32l-154.7 0c-18.73,0 -33.92,-15.18 -33.92,-33.92 0,-18.73 15.19,-33.92 33.92,-33.92l154.7 0c30.09,0 54.48,-24.39 54.48,-54.48l0 -154.7c0,-18.73 15.18,-33.92 33.92,-33.92 18.73,0 33.92,15.19 33.92,33.92l0 154.7zm0 -707.18c0,-67.55 -54.76,-122.32 -122.32,-122.32l-154.7 0c-18.73,0 -33.92,15.18 -33.92,33.92 0,18.73 15.19,33.92 33.92,33.92l154.7 0c30.09,0 54.48,24.39 54.48,54.48l0 154.7c0,18.73 15.18,33.92 33.92,33.92 18.73,0 33.92,-15.18 33.92,-33.92l0 -154.7zm-951.82 707.18c0,67.55 54.76,122.32 122.32,122.32l154.7 0c18.73,0 33.92,-15.18 33.92,-33.92 0,-18.73 -15.19,-33.92 -33.92,-33.92l-154.7 0c-30.09,0 -54.48,-24.39 -54.48,-54.48l0 -154.7c0,-18.73 -15.18,-33.92 -33.92,-33.92 -18.73,0 -33.92,15.19 -33.92,33.92l0 154.7zm0 -707.18c0,-67.55 54.76,-122.32 122.32,-122.32l154.7 0c18.73,0 33.92,15.18 33.92,33.92 0,18.73 -15.19,33.92 -33.92,33.92l-154.7 0c-30.09,0 -54.48,24.39 -54.48,54.48l0 154.7c0,18.73 -15.18,33.92 -33.92,33.92 -18.73,0 -33.92,-15.18 -33.92,-33.92l0 -154.7zm573.18 402.17c-26.85,0 -48.62,21.77 -48.62,48.62l0 97.23c0,26.85 21.77,48.62 48.62,48.62l97.23 0c26.85,0 48.62,-21.77 48.62,-48.62l0 -97.23c0,-26.85 -21.77,-48.62 -48.62,-48.62l-97.23 0zm-48.62 -243.05c0,-26.85 21.77,-48.62 48.62,-48.62l97.23 0c26.85,0 48.62,21.77 48.62,48.62l0 97.23c0,26.85 -21.77,48.62 -48.62,48.62l-97.23 0c-26.85,0 -48.62,-21.77 -48.62,-48.62l0 -97.23zm-243.12 243.05c-26.85,0 -48.62,21.77 -48.62,48.62l0 97.23c0,26.85 21.77,48.62 48.62,48.62l97.23 0c26.85,0 48.62,-21.77 48.62,-48.62l0 -97.23c0,-26.85 -21.77,-48.62 -48.62,-48.62l-97.23 0z"/>
 </g>
</svg>
