<?xml version="1.0" encoding="UTF-8"?>
<!DOCTYPE svg PUBLIC "-//W3C//DTD SVG 1.1//EN" "http://www.w3.org/Graphics/SVG/1.1/DTD/svg11.dtd">
<!-- Creator: CorelDRAW -->
<svg xmlns="http://www.w3.org/2000/svg" xml:space="preserve" width="0.833in" height="0.756961in" version="1.1" style="shape-rendering:geometricPrecision; text-rendering:geometricPrecision; image-rendering:optimizeQuality; fill-rule:evenodd; clip-rule:evenodd"
viewBox="0 0 827.53 751.99"
 xmlns:xlink="http://www.w3.org/1999/xlink"
 xmlns:xodm="http://www.corel.com/coreldraw/odm/2003">
 <defs>
  <style type="text/css">
   <![CDATA[
    .fil0 {fill:black}
   ]]>
  </style>
 </defs>
 <g id="Layer_x0020_1">
  <metadata id="CorelCorpID_0Corel-Layer"/>
  <path class="fil0" d="M87.32 275.8c-15.73,-0.03 -31.47,-0.01 -47.2,-0.01 -17.65,0 -28.59,-1.58 -36.28,10.53 -9.06,14.26 -0.11,23.91 6.65,33.23 5.92,8.17 14.13,19.64 19.82,27.34l59.88 81.75c6.18,8.13 12.27,20.88 24.97,22.04 16.88,1.55 21.64,-10.29 28.13,-18.9l79.55 -109.23c6.14,-8.82 17.15,-18.52 10.43,-33.4 -6.11,-13.55 -17.45,-13.37 -33.39,-13.36 -15.43,0.01 -32.26,0.63 -47.52,-0.2 3.84,-25.87 36.1,-77.09 53.88,-99.11 76.51,-94.76 207.32,-140.08 332.27,-104.33 164.68,47.11 257.01,208.84 220.66,376.36 -31.47,145.03 -183.09,271.48 -365.4,237.95 -84.77,-15.59 -151.93,-65.03 -191.14,-116.09 -10.9,-14.2 -21.3,-36 -46.18,-27.38 -20.62,7.15 -25.96,30.91 -12.84,48.83 23.45,32.02 43.74,54.72 74.68,79.05 167.12,131.4 405.98,99.87 534.98,-70.76 20.16,-26.67 41.6,-64.28 53.47,-100.1 55.46,-167.37 -3.04,-334.89 -139.32,-431.92 -102.14,-72.72 -239.82,-90.17 -364.15,-37.86 -94.18,39.62 -170.61,121.26 -205.25,217.31 -2.01,5.56 -6.74,25.21 -10.7,28.26zm313.3 -58.5l0 182.75c0,20.31 12.85,26.09 24.98,34.45l70.46 48.16c12.66,8.27 24.42,20.87 42.42,17.46 13.98,-2.65 26.72,-17.74 22.92,-35.42 -3.48,-16.21 -16.99,-21.41 -29.23,-30.19l-71.21 -48.6c-0.85,-48.24 -0.04,-97.28 -0.04,-145.62 0,-26.51 2.11,-44.58 -19.15,-53 -22.78,-9.02 -41.14,9.32 -41.14,30z"/>
 </g>
</svg>
