<?xml version="1.0" encoding="UTF-8"?>
<!DOCTYPE svg PUBLIC "-//W3C//DTD SVG 1.1//EN" "http://www.w3.org/Graphics/SVG/1.1/DTD/svg11.dtd">
<!-- Creator: CorelDRAW -->
<svg xmlns="http://www.w3.org/2000/svg" xml:space="preserve" width="0.833339in" height="0.833346in" version="1.1" style="shape-rendering:geometricPrecision; text-rendering:geometricPrecision; image-rendering:optimizeQuality; fill-rule:evenodd; clip-rule:evenodd"
viewBox="0 0 951.77 951.78"
 xmlns:xlink="http://www.w3.org/1999/xlink"
 xmlns:xodm="http://www.corel.com/coreldraw/odm/2003">
 <defs>
  <style type="text/css">
   <![CDATA[
    .fil0 {fill:black}
   ]]>
  </style>
 </defs>
 <g id="Layer_x0020_1">
  <metadata id="CorelCorpID_0Corel-Layer"/>
  <path class="fil0" d="M405.57 0.01c-13.75,0 -25.19,10.55 -26.35,24.26l-4.6 55.26c-2.09,25.14 -18.87,45.36 -40.43,54.33 -21.7,9.02 -47.78,6.41 -66.97,-9.85l-42.33 -35.83c-10.5,-8.88 -26.07,-8.22 -35.78,1.49l-99.45 99.45c-9.71,9.71 -10.36,25.28 -1.49,35.78l35.83 42.33c16.26,19.2 18.87,45.27 9.85,66.97 -8.97,21.57 -29.18,38.34 -54.33,40.43l-55.26 4.6c-13.71,1.16 -24.26,12.59 -24.26,26.35l0 140.62c0,13.75 10.55,25.19 24.26,26.35l55.26 4.6c25.14,2.09 45.36,18.87 54.33,40.43 9.02,21.7 6.41,47.78 -9.85,66.97l-35.83 42.33c-8.88,10.5 -8.22,26.07 1.49,35.78l99.45 99.45c9.71,9.71 25.28,10.36 35.78,1.49l42.33 -35.83c19.2,-16.26 45.27,-18.87 66.97,-9.85 21.57,8.97 38.34,29.18 40.43,54.33l4.6 55.26c1.16,13.71 12.59,24.26 26.35,24.26l140.62 -0.01c13.75,0 25.19,-10.55 26.35,-24.26l4.6 -55.26c2.09,-25.14 18.87,-45.36 40.43,-54.33 21.7,-9.02 47.78,-6.41 66.97,9.85l42.33 35.83c10.5,8.88 26.07,8.22 35.78,-1.49l99.45 -99.45c9.71,-9.71 10.36,-25.28 1.49,-35.78l-35.83 -42.33c-16.26,-19.2 -18.87,-45.27 -9.85,-66.97 8.97,-21.57 29.18,-38.34 54.33,-40.43l55.26 -4.6c13.71,-1.16 24.26,-12.59 24.26,-26.35l0 -140.62c0,-13.75 -10.55,-25.19 -24.26,-26.35l-55.26 -4.6c-25.14,-2.09 -45.36,-18.87 -54.33,-40.43 -9.02,-21.7 -6.41,-47.78 9.85,-66.97l35.83 -42.33c8.88,-10.5 8.22,-26.07 -1.49,-35.78l-99.45 -99.45c-9.71,-9.71 -25.28,-10.36 -35.78,-1.49l-42.33 35.83c-19.2,16.26 -45.27,18.87 -66.97,9.85 -21.57,-8.97 -38.34,-29.18 -40.43,-54.33l-4.6 -55.26c-1.16,-13.71 -12.59,-24.26 -26.35,-24.26l-140.62 0.01zm-167.63 475.88c0,-131.43 106.51,-237.94 237.94,-237.94 131.43,0 237.94,106.51 237.94,237.94 0,131.43 -106.51,237.94 -237.94,237.94 -131.43,0 -237.94,-106.51 -237.94,-237.94z"/>
 </g>
</svg>
